# xmcd
#
# Track frame offsets:
#	150
#	17735
#	33383
#	64321
#	77513
#	89158
#	104647
#	126530
#	217909
#
# Disc length: 4173 seconds
#
# Revision: 0
# Processed by: cddbd v1.5.2PL0 Copyright (c) Steve Scherf et al.
# Submitted via: dBpowerAMP V4.0
#
DISCID=7f104b09
DTITLE=Canned Heat - Living the blues
DYEAR=1900
DGENRE=Blues
TTITLE0=Pony blues
TTITLE1=My mistake
TTITLE2=Sandy's blues
TTITLE3=Going up the country
TTITLE4=Walking by myself
TTITLE5=Boogie music
TTITLE6=One kind favor
TTITLE7=Refried boogie part 1
TTITLE8=Refried boogie part 2
EXTD=
EXTT0=
EXTT1=
EXTT2=
EXTT3=
EXTT4=
EXTT5=
EXTT6=
EXTT7=
EXTT8=
PLAYORDER=
